<mxfile host="Electron" agent="Mozilla/5.0 (Macintosh; Intel Mac OS X 10_15_7) AppleWebKit/537.36 (KHTML, like Gecko) draw.io/24.7.8 Chrome/128.0.6613.36 Electron/32.0.1 Safari/537.36" version="24.7.8">
  <diagram id="E7rEXPW3N-l2FGpHnZA7" name="main">
    <mxGraphModel dx="613" dy="489" grid="1" gridSize="10" guides="1" tooltips="1" connect="1" arrows="1" fold="1" page="1" pageScale="1" pageWidth="827" pageHeight="1169" math="0" shadow="0">
      <root>
        <mxCell id="0" />
        <mxCell id="1" parent="0" />
        <mxCell id="7nFTvo0RTCtEUNDV_PWr-68" value="" style="group" parent="1" vertex="1" connectable="0">
          <mxGeometry x="40" y="120" width="910" height="658" as="geometry" />
        </mxCell>
        <mxCell id="7nFTvo0RTCtEUNDV_PWr-1" value="AWS Cloud" style="points=[[0,0],[0.25,0],[0.5,0],[0.75,0],[1,0],[1,0.25],[1,0.5],[1,0.75],[1,1],[0.75,1],[0.5,1],[0.25,1],[0,1],[0,0.75],[0,0.5],[0,0.25]];outlineConnect=0;gradientColor=none;html=1;whiteSpace=wrap;fontSize=12;fontStyle=0;container=1;pointerEvents=0;collapsible=0;recursiveResize=0;shape=mxgraph.aws4.group;grIcon=mxgraph.aws4.group_aws_cloud_alt;strokeColor=#232F3E;fillColor=none;verticalAlign=top;align=left;spacingLeft=30;fontColor=#232F3E;dashed=0;" parent="7nFTvo0RTCtEUNDV_PWr-68" vertex="1">
          <mxGeometry width="680" height="530" as="geometry" />
        </mxCell>
        <mxCell id="7nFTvo0RTCtEUNDV_PWr-2" value="VPC" style="points=[[0,0],[0.25,0],[0.5,0],[0.75,0],[1,0],[1,0.25],[1,0.5],[1,0.75],[1,1],[0.75,1],[0.5,1],[0.25,1],[0,1],[0,0.75],[0,0.5],[0,0.25]];outlineConnect=0;gradientColor=none;html=1;whiteSpace=wrap;fontSize=12;fontStyle=0;container=1;pointerEvents=0;collapsible=0;recursiveResize=0;shape=mxgraph.aws4.group;grIcon=mxgraph.aws4.group_vpc;strokeColor=#248814;fillColor=none;verticalAlign=top;align=left;spacingLeft=30;fontColor=#AAB7B8;dashed=0;" parent="7nFTvo0RTCtEUNDV_PWr-1" vertex="1">
          <mxGeometry x="40" y="40" width="360" height="320" as="geometry" />
        </mxCell>
        <mxCell id="7nFTvo0RTCtEUNDV_PWr-50" value="Private subnet" style="points=[[0,0],[0.25,0],[0.5,0],[0.75,0],[1,0],[1,0.25],[1,0.5],[1,0.75],[1,1],[0.75,1],[0.5,1],[0.25,1],[0,1],[0,0.75],[0,0.5],[0,0.25]];outlineConnect=0;gradientColor=none;html=1;whiteSpace=wrap;fontSize=12;fontStyle=0;container=1;pointerEvents=0;collapsible=0;recursiveResize=0;shape=mxgraph.aws4.group;grIcon=mxgraph.aws4.group_security_group;grStroke=0;strokeColor=#147EBA;fillColor=#E6F2F8;verticalAlign=top;align=left;spacingLeft=30;fontColor=#147EBA;dashed=0;fontFamily=Helvetica;" parent="7nFTvo0RTCtEUNDV_PWr-2" vertex="1">
          <mxGeometry x="30" y="50" width="140" height="260" as="geometry" />
        </mxCell>
        <mxCell id="7nFTvo0RTCtEUNDV_PWr-48" value="Private subnet" style="points=[[0,0],[0.25,0],[0.5,0],[0.75,0],[1,0],[1,0.25],[1,0.5],[1,0.75],[1,1],[0.75,1],[0.5,1],[0.25,1],[0,1],[0,0.75],[0,0.5],[0,0.25]];outlineConnect=0;gradientColor=none;html=1;whiteSpace=wrap;fontSize=12;fontStyle=0;container=1;pointerEvents=0;collapsible=0;recursiveResize=0;shape=mxgraph.aws4.group;grIcon=mxgraph.aws4.group_security_group;grStroke=0;strokeColor=#147EBA;fillColor=#E6F2F8;verticalAlign=top;align=left;spacingLeft=30;fontColor=#147EBA;dashed=0;fontFamily=Helvetica;" parent="7nFTvo0RTCtEUNDV_PWr-2" vertex="1">
          <mxGeometry x="190" y="50" width="140" height="260" as="geometry" />
        </mxCell>
        <mxCell id="7nFTvo0RTCtEUNDV_PWr-22" value="" style="group" parent="7nFTvo0RTCtEUNDV_PWr-2" vertex="1" connectable="0">
          <mxGeometry x="40" y="80" width="291.92" height="210" as="geometry" />
        </mxCell>
        <mxCell id="7nFTvo0RTCtEUNDV_PWr-10" value="" style="group" parent="7nFTvo0RTCtEUNDV_PWr-22" vertex="1" connectable="0">
          <mxGeometry y="90" width="120" height="120" as="geometry" />
        </mxCell>
        <mxCell id="7nFTvo0RTCtEUNDV_PWr-11" value="ECS instance" style="fillColor=none;strokeColor=#5A6C86;dashed=1;verticalAlign=top;fontStyle=0;fontColor=#5A6C86;" parent="7nFTvo0RTCtEUNDV_PWr-10" vertex="1">
          <mxGeometry width="120" height="120" as="geometry" />
        </mxCell>
        <mxCell id="7nFTvo0RTCtEUNDV_PWr-12" value="" style="group" parent="7nFTvo0RTCtEUNDV_PWr-10" vertex="1" connectable="0">
          <mxGeometry x="32.30769230769231" y="36.92307692307693" width="55.38461538461539" height="59.07692307692308" as="geometry" />
        </mxCell>
        <mxCell id="7nFTvo0RTCtEUNDV_PWr-13" value="" style="sketch=0;outlineConnect=0;fontColor=#232F3E;gradientColor=none;fillColor=#D45B07;strokeColor=none;dashed=0;verticalLabelPosition=bottom;verticalAlign=top;align=center;html=1;fontSize=12;fontStyle=0;aspect=fixed;pointerEvents=1;shape=mxgraph.aws4.container_2;fontFamily=Helvetica;" parent="7nFTvo0RTCtEUNDV_PWr-12" vertex="1">
          <mxGeometry x="5.538461538461538" width="40.89940828402367" height="26.414201183431956" as="geometry" />
        </mxCell>
        <mxCell id="7nFTvo0RTCtEUNDV_PWr-14" value="&lt;br&gt;WG daemon:&lt;br&gt;&lt;font style=&quot;font-size: 10px;&quot;&gt;linuxserver/wireguard&lt;/font&gt;" style="text;html=1;strokeColor=none;fillColor=none;align=center;verticalAlign=middle;whiteSpace=wrap;rounded=0;dashed=1;fontFamily=Helvetica;fontSize=12;fontColor=#5A6C86;" parent="7nFTvo0RTCtEUNDV_PWr-12" vertex="1">
          <mxGeometry y="31.384615384615387" width="55.38461538461539" height="27.692307692307693" as="geometry" />
        </mxCell>
        <mxCell id="7nFTvo0RTCtEUNDV_PWr-9" value="" style="group" parent="7nFTvo0RTCtEUNDV_PWr-22" vertex="1" connectable="0">
          <mxGeometry x="160" y="90" width="120" height="120" as="geometry" />
        </mxCell>
        <mxCell id="7nFTvo0RTCtEUNDV_PWr-3" value="ECS instance" style="fillColor=none;strokeColor=#5A6C86;dashed=1;verticalAlign=top;fontStyle=0;fontColor=#5A6C86;" parent="7nFTvo0RTCtEUNDV_PWr-9" vertex="1">
          <mxGeometry width="120" height="120" as="geometry" />
        </mxCell>
        <mxCell id="7nFTvo0RTCtEUNDV_PWr-8" value="" style="group" parent="7nFTvo0RTCtEUNDV_PWr-9" vertex="1" connectable="0">
          <mxGeometry x="32.30769230769231" y="36.92307692307693" width="55.38461538461539" height="59.07692307692308" as="geometry" />
        </mxCell>
        <mxCell id="7nFTvo0RTCtEUNDV_PWr-5" value="" style="sketch=0;outlineConnect=0;fontColor=#232F3E;gradientColor=none;fillColor=#D45B07;strokeColor=none;dashed=0;verticalLabelPosition=bottom;verticalAlign=top;align=center;html=1;fontSize=12;fontStyle=0;aspect=fixed;pointerEvents=1;shape=mxgraph.aws4.container_2;fontFamily=Helvetica;" parent="7nFTvo0RTCtEUNDV_PWr-8" vertex="1">
          <mxGeometry x="5.538461538461538" width="40.89940828402367" height="26.414201183431956" as="geometry" />
        </mxCell>
        <mxCell id="7nFTvo0RTCtEUNDV_PWr-6" value="&lt;br&gt;WG daemon:&lt;br&gt;&lt;font style=&quot;font-size: 10px;&quot;&gt;linuxserver/wireguard&lt;/font&gt;" style="text;html=1;strokeColor=none;fillColor=none;align=center;verticalAlign=middle;whiteSpace=wrap;rounded=0;dashed=1;fontFamily=Helvetica;fontSize=12;fontColor=#5A6C86;" parent="7nFTvo0RTCtEUNDV_PWr-8" vertex="1">
          <mxGeometry y="31.384615384615387" width="55.38461538461539" height="27.692307692307693" as="geometry" />
        </mxCell>
        <mxCell id="3in1NvmL81aLf4_MEPqi-42" value="" style="sketch=0;outlineConnect=0;fontColor=#232F3E;gradientColor=none;fillColor=#7AA116;strokeColor=none;dashed=0;verticalLabelPosition=bottom;verticalAlign=top;align=center;html=1;fontSize=12;fontStyle=0;aspect=fixed;pointerEvents=1;shape=mxgraph.aws4.volume;fontFamily=Helvetica;labelBackgroundColor=default;" vertex="1" parent="7nFTvo0RTCtEUNDV_PWr-22">
          <mxGeometry x="48.08000000000004" y="20" width="23.84" height="30" as="geometry" />
        </mxCell>
        <mxCell id="3in1NvmL81aLf4_MEPqi-7" value="" style="sketch=0;outlineConnect=0;fontColor=#232F3E;gradientColor=none;fillColor=#7AA116;strokeColor=none;dashed=0;verticalLabelPosition=bottom;verticalAlign=top;align=center;html=1;fontSize=12;fontStyle=0;aspect=fixed;pointerEvents=1;shape=mxgraph.aws4.volume;fontFamily=Helvetica;labelBackgroundColor=default;" vertex="1" parent="7nFTvo0RTCtEUNDV_PWr-22">
          <mxGeometry x="208.08000000000004" y="20" width="23.84" height="30" as="geometry" />
        </mxCell>
        <mxCell id="3in1NvmL81aLf4_MEPqi-43" value="Volume&lt;div&gt;&lt;font style=&quot;font-size: 10px;&quot;&gt;wg-conf&lt;/font&gt;&lt;/div&gt;" style="text;html=1;strokeColor=none;fillColor=none;align=center;verticalAlign=middle;whiteSpace=wrap;rounded=0;dashed=1;fontFamily=Helvetica;fontSize=12;fontColor=#5A6C86;" vertex="1" parent="7nFTvo0RTCtEUNDV_PWr-22">
          <mxGeometry x="-11.920000000000002" y="20" width="60" height="30" as="geometry" />
        </mxCell>
        <mxCell id="3in1NvmL81aLf4_MEPqi-44" value="Volume&lt;div&gt;&lt;font style=&quot;font-size: 10px;&quot;&gt;wg-conf&lt;/font&gt;&lt;/div&gt;" style="text;html=1;strokeColor=none;fillColor=none;align=center;verticalAlign=middle;whiteSpace=wrap;rounded=0;dashed=1;fontFamily=Helvetica;fontSize=12;fontColor=#5A6C86;" vertex="1" parent="7nFTvo0RTCtEUNDV_PWr-22">
          <mxGeometry x="231.92000000000002" y="20" width="60" height="30" as="geometry" />
        </mxCell>
        <mxCell id="3in1NvmL81aLf4_MEPqi-47" style="edgeStyle=orthogonalEdgeStyle;shape=connector;rounded=0;orthogonalLoop=1;jettySize=auto;html=1;exitX=0.5;exitY=0;exitDx=0;exitDy=0;strokeColor=#333333;strokeWidth=0.7874;align=center;verticalAlign=middle;fontFamily=Helvetica;fontSize=12;fontColor=default;labelBackgroundColor=default;endArrow=classic;" edge="1" parent="7nFTvo0RTCtEUNDV_PWr-22" source="7nFTvo0RTCtEUNDV_PWr-11" target="3in1NvmL81aLf4_MEPqi-42">
          <mxGeometry relative="1" as="geometry" />
        </mxCell>
        <mxCell id="3in1NvmL81aLf4_MEPqi-48" style="edgeStyle=orthogonalEdgeStyle;shape=connector;rounded=0;orthogonalLoop=1;jettySize=auto;html=1;exitX=0.5;exitY=0;exitDx=0;exitDy=0;strokeColor=#333333;strokeWidth=0.7874;align=center;verticalAlign=middle;fontFamily=Helvetica;fontSize=11;fontColor=default;labelBackgroundColor=default;endArrow=classic;" edge="1" parent="7nFTvo0RTCtEUNDV_PWr-22" source="7nFTvo0RTCtEUNDV_PWr-3" target="3in1NvmL81aLf4_MEPqi-7">
          <mxGeometry relative="1" as="geometry" />
        </mxCell>
        <mxCell id="7nFTvo0RTCtEUNDV_PWr-67" style="edgeStyle=orthogonalEdgeStyle;rounded=0;orthogonalLoop=1;jettySize=auto;html=1;fontFamily=Helvetica;fontSize=11;fontColor=default;strokeColor=#333333;strokeWidth=0.7874;align=center;verticalAlign=middle;labelBackgroundColor=default;endArrow=classic;" parent="7nFTvo0RTCtEUNDV_PWr-68" source="7nFTvo0RTCtEUNDV_PWr-66" target="7nFTvo0RTCtEUNDV_PWr-59" edge="1">
          <mxGeometry relative="1" as="geometry" />
        </mxCell>
        <mxCell id="7nFTvo0RTCtEUNDV_PWr-66" value="Users" style="sketch=0;outlineConnect=0;gradientColor=none;fontColor=#545B64;strokeColor=none;fillColor=#879196;dashed=0;verticalLabelPosition=bottom;verticalAlign=top;align=center;html=1;fontSize=12;fontStyle=0;aspect=fixed;shape=mxgraph.aws4.illustration_users;pointerEvents=1;fontFamily=Helvetica;" parent="7nFTvo0RTCtEUNDV_PWr-68" vertex="1">
          <mxGeometry x="190" y="598" width="60" height="60" as="geometry" />
        </mxCell>
        <mxCell id="7nFTvo0RTCtEUNDV_PWr-36" value="&lt;font color=&quot;#5a6c86&quot;&gt;Parameter Store:&lt;br&gt;WG config&lt;/font&gt;" style="sketch=0;outlineConnect=0;fontColor=#232F3E;gradientColor=none;fillColor=#B0084D;strokeColor=none;dashed=0;verticalLabelPosition=bottom;verticalAlign=top;align=center;html=1;fontSize=12;fontStyle=0;aspect=fixed;pointerEvents=1;shape=mxgraph.aws4.parameter_store;fontFamily=Helvetica;" parent="7nFTvo0RTCtEUNDV_PWr-68" vertex="1">
          <mxGeometry x="560" y="240" width="38.46" height="40" as="geometry" />
        </mxCell>
        <mxCell id="7nFTvo0RTCtEUNDV_PWr-57" value="Fetch image:&lt;br&gt;&lt;font style=&quot;font-size: 10px;&quot;&gt;&amp;nbsp;linuxserver/wireguard&lt;/font&gt;" style="text;html=1;strokeColor=none;fillColor=none;align=center;verticalAlign=middle;whiteSpace=wrap;rounded=0;dashed=1;fontFamily=Helvetica;fontSize=12;fontColor=#5A6C86;" parent="7nFTvo0RTCtEUNDV_PWr-68" vertex="1">
          <mxGeometry x="430" y="200" width="60" height="30" as="geometry" />
        </mxCell>
        <mxCell id="3in1NvmL81aLf4_MEPqi-4" style="edgeStyle=orthogonalEdgeStyle;rounded=0;orthogonalLoop=1;jettySize=auto;html=1;strokeColor=#333333;strokeWidth=0.7874;" edge="1" parent="7nFTvo0RTCtEUNDV_PWr-68" source="7nFTvo0RTCtEUNDV_PWr-5" target="7nFTvo0RTCtEUNDV_PWr-36">
          <mxGeometry relative="1" as="geometry" />
        </mxCell>
        <mxCell id="7nFTvo0RTCtEUNDV_PWr-55" value="Fetch params" style="text;html=1;strokeColor=none;fillColor=none;align=center;verticalAlign=middle;whiteSpace=wrap;rounded=0;dashed=1;fontFamily=Helvetica;fontSize=12;fontColor=#5A6C86;" parent="7nFTvo0RTCtEUNDV_PWr-68" vertex="1">
          <mxGeometry x="430" y="270" width="60" height="30" as="geometry" />
        </mxCell>
        <mxCell id="7nFTvo0RTCtEUNDV_PWr-40" value="&lt;font color=&quot;#5a6c86&quot;&gt;ECR&lt;/font&gt;" style="sketch=0;points=[[0,0,0],[0.25,0,0],[0.5,0,0],[0.75,0,0],[1,0,0],[0,1,0],[0.25,1,0],[0.5,1,0],[0.75,1,0],[1,1,0],[0,0.25,0],[0,0.5,0],[0,0.75,0],[1,0.25,0],[1,0.5,0],[1,0.75,0]];outlineConnect=0;fontColor=#232F3E;gradientColor=#F78E04;gradientDirection=north;fillColor=#D05C17;strokeColor=#ffffff;dashed=0;verticalLabelPosition=bottom;verticalAlign=top;align=center;html=1;fontSize=12;fontStyle=0;aspect=fixed;shape=mxgraph.aws4.resourceIcon;resIcon=mxgraph.aws4.ecr;fontFamily=Helvetica;" parent="7nFTvo0RTCtEUNDV_PWr-68" vertex="1">
          <mxGeometry x="558.46" y="160" width="40" height="40" as="geometry" />
        </mxCell>
        <mxCell id="7nFTvo0RTCtEUNDV_PWr-43" style="edgeStyle=orthogonalEdgeStyle;rounded=0;orthogonalLoop=1;jettySize=auto;html=1;exitX=1;exitY=0.25;exitDx=0;exitDy=0;entryX=0;entryY=0.5;entryDx=0;entryDy=0;entryPerimeter=0;fontFamily=Helvetica;fontSize=11;fontColor=default;strokeColor=#333333;strokeWidth=0.7874;align=center;verticalAlign=middle;labelBackgroundColor=default;endArrow=classic;" parent="7nFTvo0RTCtEUNDV_PWr-68" source="7nFTvo0RTCtEUNDV_PWr-3" target="7nFTvo0RTCtEUNDV_PWr-40" edge="1">
          <mxGeometry relative="1" as="geometry">
            <Array as="points">
              <mxPoint x="520" y="240" />
              <mxPoint x="520" y="180" />
            </Array>
          </mxGeometry>
        </mxCell>
        <mxCell id="3in1NvmL81aLf4_MEPqi-5" value="&lt;font color=&quot;#5a6c86&quot;&gt;EFS:&lt;/font&gt;&lt;div&gt;&lt;font color=&quot;#5a6c86&quot; style=&quot;font-size: 10px;&quot;&gt;/etc/wireguard&lt;/font&gt;&lt;/div&gt;" style="sketch=0;points=[[0,0,0],[0.25,0,0],[0.5,0,0],[0.75,0,0],[1,0,0],[0,1,0],[0.25,1,0],[0.5,1,0],[0.75,1,0],[1,1,0],[0,0.25,0],[0,0.5,0],[0,0.75,0],[1,0.25,0],[1,0.5,0],[1,0.75,0]];outlineConnect=0;fontColor=#232F3E;fillColor=#7AA116;strokeColor=#ffffff;dashed=0;verticalLabelPosition=bottom;verticalAlign=top;align=center;html=1;fontSize=12;fontStyle=0;aspect=fixed;shape=mxgraph.aws4.resourceIcon;resIcon=mxgraph.aws4.elastic_file_system;fontFamily=Helvetica;labelBackgroundColor=default;" vertex="1" parent="7nFTvo0RTCtEUNDV_PWr-68">
          <mxGeometry x="558.46" y="60" width="40" height="40" as="geometry" />
        </mxCell>
        <mxCell id="3in1NvmL81aLf4_MEPqi-59" style="edgeStyle=orthogonalEdgeStyle;shape=connector;rounded=0;orthogonalLoop=1;jettySize=auto;html=1;entryX=0.5;entryY=1;entryDx=0;entryDy=0;strokeColor=#333333;strokeWidth=0.7874;align=center;verticalAlign=middle;fontFamily=Helvetica;fontSize=11;fontColor=default;labelBackgroundColor=default;endArrow=classic;" edge="1" parent="7nFTvo0RTCtEUNDV_PWr-68" source="7nFTvo0RTCtEUNDV_PWr-59" target="7nFTvo0RTCtEUNDV_PWr-3">
          <mxGeometry relative="1" as="geometry" />
        </mxCell>
        <mxCell id="7nFTvo0RTCtEUNDV_PWr-59" value="" style="sketch=0;outlineConnect=0;fontColor=#232F3E;gradientColor=none;fillColor=#4D27AA;strokeColor=none;dashed=0;verticalLabelPosition=bottom;verticalAlign=top;align=center;html=1;fontSize=12;fontStyle=0;aspect=fixed;pointerEvents=1;shape=mxgraph.aws4.network_load_balancer;fontFamily=Helvetica;" parent="7nFTvo0RTCtEUNDV_PWr-68" vertex="1">
          <mxGeometry x="200" y="410" width="40" height="40" as="geometry" />
        </mxCell>
        <mxCell id="3in1NvmL81aLf4_MEPqi-10" value="NLB" style="text;html=1;strokeColor=none;fillColor=none;align=center;verticalAlign=middle;whiteSpace=wrap;rounded=0;dashed=1;fontFamily=Helvetica;fontSize=12;fontColor=#5A6C86;" vertex="1" parent="7nFTvo0RTCtEUNDV_PWr-68">
          <mxGeometry x="150" y="415" width="60" height="30" as="geometry" />
        </mxCell>
        <mxCell id="3in1NvmL81aLf4_MEPqi-49" style="edgeStyle=orthogonalEdgeStyle;shape=connector;rounded=0;orthogonalLoop=1;jettySize=auto;html=1;entryX=0;entryY=0.5;entryDx=0;entryDy=0;entryPerimeter=0;strokeColor=#333333;strokeWidth=0.7874;align=center;verticalAlign=middle;fontFamily=Helvetica;fontSize=11;fontColor=default;labelBackgroundColor=default;endArrow=classic;" edge="1" parent="7nFTvo0RTCtEUNDV_PWr-68" source="3in1NvmL81aLf4_MEPqi-7" target="3in1NvmL81aLf4_MEPqi-5">
          <mxGeometry relative="1" as="geometry">
            <Array as="points">
              <mxPoint x="300" y="130" />
              <mxPoint x="440" y="130" />
              <mxPoint x="440" y="80" />
            </Array>
          </mxGeometry>
        </mxCell>
        <mxCell id="3in1NvmL81aLf4_MEPqi-56" style="edgeStyle=orthogonalEdgeStyle;shape=connector;rounded=0;orthogonalLoop=1;jettySize=auto;html=1;entryX=0;entryY=0.5;entryDx=0;entryDy=0;entryPerimeter=0;strokeColor=#333333;strokeWidth=0.7874;align=center;verticalAlign=middle;fontFamily=Helvetica;fontSize=11;fontColor=default;labelBackgroundColor=default;endArrow=classic;" edge="1" parent="7nFTvo0RTCtEUNDV_PWr-68" source="3in1NvmL81aLf4_MEPqi-42" target="3in1NvmL81aLf4_MEPqi-5">
          <mxGeometry relative="1" as="geometry">
            <Array as="points">
              <mxPoint x="140" y="130" />
              <mxPoint x="440" y="130" />
              <mxPoint x="440" y="80" />
            </Array>
          </mxGeometry>
        </mxCell>
        <mxCell id="3in1NvmL81aLf4_MEPqi-58" style="edgeStyle=orthogonalEdgeStyle;shape=connector;rounded=0;orthogonalLoop=1;jettySize=auto;html=1;entryX=0.45;entryY=1.015;entryDx=0;entryDy=0;entryPerimeter=0;strokeColor=#333333;strokeWidth=0.7874;align=center;verticalAlign=middle;fontFamily=Helvetica;fontSize=11;fontColor=default;labelBackgroundColor=default;endArrow=classic;" edge="1" parent="7nFTvo0RTCtEUNDV_PWr-68" source="7nFTvo0RTCtEUNDV_PWr-59" target="7nFTvo0RTCtEUNDV_PWr-11">
          <mxGeometry relative="1" as="geometry" />
        </mxCell>
        <mxCell id="7nFTvo0RTCtEUNDV_PWr-69" value="Highly-Available WireGuard service on AWS ECS&lt;div&gt;(simplified view)&lt;br&gt;Author: Andre Silva&lt;br&gt;Version: 1&lt;br&gt;Date: 2024-09-06&lt;/div&gt;" style="text;html=1;strokeColor=none;fillColor=none;align=left;verticalAlign=middle;whiteSpace=wrap;rounded=0;dashed=1;fontFamily=Helvetica;fontSize=12;fontColor=#5A6C86;" parent="1" vertex="1">
          <mxGeometry x="254" y="52" width="302" height="30" as="geometry" />
        </mxCell>
      </root>
    </mxGraphModel>
  </diagram>
</mxfile>
